<svg width="34" height="22" viewBox="0 0 34 22" fill="none" xmlns="http://www.w3.org/2000/svg">
<mask id="path-1-inside-1_284_546" fill="white">
<path d="M34 21C32.6868 21 31.3864 20.7413 30.1732 20.2388C28.9599 19.7362 27.8575 18.9997 26.9289 18.0711C26.0003 17.1425 25.2638 16.0401 24.7612 14.8268C24.2587 13.6136 24 12.3132 24 11C24 9.68678 24.2587 8.38642 24.7612 7.17317C25.2638 5.95991 26.0003 4.85752 26.9289 3.92893C27.8575 3.00035 28.9599 2.26375 30.1732 1.7612C31.3864 1.25866 32.6868 1 34 1L34 6.54539C33.415 6.54539 32.8358 6.66061 32.2953 6.88448C31.7548 7.10834 31.2638 7.43646 30.8501 7.85011C30.4365 8.26376 30.1083 8.75484 29.8845 9.29529C29.6606 9.83575 29.5454 10.415 29.5454 11C29.5454 11.585 29.6606 12.1642 29.8845 12.7047C30.1083 13.2452 30.4365 13.7362 30.8501 14.1499C31.2638 14.5635 31.7548 14.8917 32.2953 15.1155C32.8358 15.3394 33.415 15.4546 34 15.4546L34 21Z"/>
</mask>
<path d="M34 21L34 27L40 27L40 21L34 21ZM24 11L30 11L24 11ZM34 1L40 1L40 -5L34 -5L34 1ZM34 6.54539L34 12.5454L40 12.5454L40 6.54539L34 6.54539ZM29.5454 11L35.5454 11L29.5454 11ZM34 15.4546L40 15.4546L40 9.45461L34 9.45461L34 15.4546ZM34 15C33.4747 15 32.9546 14.8965 32.4693 14.6955L27.8771 25.7821C29.8183 26.5861 31.8989 27 34 27L34 15ZM32.4693 14.6955C31.984 14.4945 31.543 14.1999 31.1716 13.8284L22.6863 22.3137C24.172 23.7994 25.9359 24.978 27.8771 25.7821L32.4693 14.6955ZM31.1716 13.8284C30.8001 13.457 30.5055 13.016 30.3045 12.5307L19.2179 17.1229C20.022 19.0641 21.2006 20.828 22.6863 22.3137L31.1716 13.8284ZM30.3045 12.5307C30.1035 12.0454 30 11.5253 30 11L18 11C18 13.1012 18.4139 15.1817 19.2179 17.1229L30.3045 12.5307ZM30 11C30 10.4747 30.1035 9.95457 30.3045 9.46927L19.2179 4.87706C18.4139 6.81827 18 8.89885 18 11L30 11ZM30.3045 9.46927C30.5055 8.98396 30.8001 8.54301 31.1716 8.17157L22.6863 -0.313709C21.2006 1.17203 20.022 2.93586 19.2179 4.87706L30.3045 9.46927ZM31.1716 8.17157C31.543 7.80014 31.984 7.5055 32.4693 7.30448L27.8771 -3.78207C25.9359 -2.978 24.172 -1.79945 22.6863 -0.313709L31.1716 8.17157ZM32.4693 7.30448C32.9546 7.10346 33.4747 7 34 7L34 -5C31.8989 -5 29.8183 -4.58615 27.8771 -3.78207L32.4693 7.30448ZM28 0.999999L28 6.54539L40 6.54539L40 1L28 0.999999ZM34 0.545388C32.6271 0.545388 31.2676 0.815805 29.9992 1.3412L34.5914 12.4278C34.4039 12.5054 34.2029 12.5454 34 12.5454L34 0.545388ZM29.9992 1.3412C28.7308 1.86659 27.5783 2.63667 26.6075 3.60747L35.0928 12.0928C34.9493 12.2363 34.7789 12.3501 34.5914 12.4278L29.9992 1.3412ZM26.6075 3.60747C25.6367 4.57828 24.8666 5.73079 24.3412 6.99919L35.4278 11.5914C35.3501 11.7789 35.2363 11.9492 35.0928 12.0928L26.6075 3.60747ZM24.3412 6.99919C23.8158 8.2676 23.5454 9.62708 23.5454 11L35.5454 11C35.5454 11.2029 35.5054 11.4039 35.4278 11.5914L24.3412 6.99919ZM23.5454 11C23.5454 12.3729 23.8158 13.7324 24.3412 15.0008L35.4278 10.4086C35.5054 10.5961 35.5454 10.7971 35.5454 11L23.5454 11ZM24.3412 15.0008C24.8666 16.2692 25.6367 17.4217 26.6075 18.3925L35.0928 9.90725C35.2363 10.0508 35.3501 10.2211 35.4278 10.4086L24.3412 15.0008ZM26.6075 18.3925C27.5783 19.3633 28.7308 20.1334 29.9992 20.6588L34.5914 9.57225C34.7789 9.64991 34.9493 9.76374 35.0928 9.90725L26.6075 18.3925ZM29.9992 20.6588C31.2676 21.1842 32.6271 21.4546 34 21.4546L34 9.45461C34.2029 9.45461 34.4039 9.49459 34.5914 9.57225L29.9992 20.6588ZM28 15.4546L28 21L40 21L40 15.4546L28 15.4546Z" fill="url(#paint0_linear_284_546)" mask="url(#path-1-inside-1_284_546)"/>
<mask id="path-3-inside-2_284_546" fill="white">
<path d="M3.40335e-08 21C1.31322 21 2.61358 20.7413 3.82683 20.2388C5.04009 19.7362 6.14248 18.9997 7.07107 18.0711C7.99965 17.1425 8.73625 16.0401 9.2388 14.8268C9.74134 13.6136 10 12.3132 10 11C10 9.68678 9.74134 8.38642 9.2388 7.17317C8.73625 5.95991 7.99966 4.85752 7.07107 3.92893C6.14248 3.00035 5.04009 2.26375 3.82683 1.7612C2.61358 1.25866 1.31322 1 0 1L6.65865e-07 6.54539C0.584989 6.54539 1.16425 6.66061 1.70471 6.88448C2.24516 7.10834 2.73624 7.43646 3.14989 7.85011C3.56354 8.26376 3.89166 8.75484 4.11552 9.29529C4.33939 9.83575 4.45461 10.415 4.45461 11C4.45461 11.585 4.33939 12.1642 4.11552 12.7047C3.89166 13.2452 3.56354 13.7362 3.14989 14.1499C2.73624 14.5635 2.24517 14.8917 1.70471 15.1155C1.16425 15.3394 0.584988 15.4546 2.7643e-07 15.4546L3.40335e-08 21Z"/>
</mask>
<path d="M3.40335e-08 21L-2.28235e-07 27L-6 27L-6 21L3.40335e-08 21ZM10 11L4 11L10 11ZM0 1L-6 1L-6 -5L-2.62268e-07 -5L0 1ZM6.65865e-07 6.54539L9.28133e-07 12.5454L-6 12.5454L-6 6.54539L6.65865e-07 6.54539ZM4.45461 11L-1.54539 11L4.45461 11ZM2.7643e-07 15.4546L-6 15.4546L-6 9.45461L5.38698e-07 9.45461L2.7643e-07 15.4546ZM2.96302e-07 15C0.525288 15 1.04543 14.8965 1.53073 14.6955L6.12293 25.7821C4.18173 26.5861 2.10115 27 -2.28235e-07 27L2.96302e-07 15ZM1.53073 14.6955C2.01604 14.4945 2.45699 14.1999 2.82843 13.8284L11.3137 22.3137C9.82797 23.7994 8.06414 24.978 6.12293 25.7821L1.53073 14.6955ZM2.82843 13.8284C3.19986 13.457 3.4945 13.016 3.69552 12.5307L14.7821 17.1229C13.978 19.0641 12.7994 20.828 11.3137 22.3137L2.82843 13.8284ZM3.69552 12.5307C3.89654 12.0454 4 11.5253 4 11L16 11C16 13.1012 15.5861 15.1817 14.7821 17.1229L3.69552 12.5307ZM4 11C4 10.4747 3.89654 9.95457 3.69552 9.46927L14.7821 4.87706C15.5861 6.81828 16 8.89885 16 11L4 11ZM3.69552 9.46927C3.4945 8.98396 3.19986 8.54301 2.82843 8.17157L11.3137 -0.313709C12.7994 1.17203 13.978 2.93586 14.7821 4.87706L3.69552 9.46927ZM2.82843 8.17157C2.457 7.80014 2.01604 7.5055 1.53073 7.30448L6.12293 -3.78207C8.06414 -2.978 9.82797 -1.79945 11.3137 -0.313709L2.82843 8.17157ZM1.53073 7.30448C1.04543 7.10346 0.525288 7 2.62268e-07 7L-2.62268e-07 -5C2.10115 -5 4.18173 -4.58615 6.12293 -3.78207L1.53073 7.30448ZM6 0.999999L6 6.54539L-6 6.54539L-6 1L6 0.999999ZM4.03596e-07 0.545388C1.37292 0.545388 2.7324 0.815805 4.00081 1.3412L-0.591394 12.4278C-0.4039 12.5054 -0.202944 12.5454 9.28133e-07 12.5454L4.03596e-07 0.545388ZM4.00081 1.3412C5.26922 1.86659 6.42173 2.63667 7.39253 3.60747L-1.09275 12.0928C-0.949249 12.2363 -0.778887 12.3501 -0.591394 12.4278L4.00081 1.3412ZM7.39253 3.60747C8.36333 4.57828 9.13341 5.73078 9.6588 6.99919L-1.42775 11.5914C-1.35009 11.7789 -1.23626 11.9493 -1.09275 12.0928L7.39253 3.60747ZM9.6588 6.99919C10.1842 8.2676 10.4546 9.62708 10.4546 11L-1.54539 11C-1.54539 11.2029 -1.50541 11.4039 -1.42775 11.5914L9.6588 6.99919ZM10.4546 11C10.4546 12.3729 10.1842 13.7324 9.6588 15.0008L-1.42775 10.4086C-1.50541 10.5961 -1.54539 10.7971 -1.54539 11L10.4546 11ZM9.6588 15.0008C9.13341 16.2692 8.36333 17.4217 7.39253 18.3925L-1.09275 9.90725C-1.23626 10.0508 -1.35009 10.2211 -1.42775 10.4086L9.6588 15.0008ZM7.39253 18.3925C6.42172 19.3633 5.26922 20.1334 4.00081 20.6588L-0.591394 9.57225C-0.778887 9.64991 -0.94925 9.76374 -1.09275 9.90725L7.39253 18.3925ZM4.00081 20.6588C2.7324 21.1842 1.37292 21.4546 1.41617e-08 21.4546L5.38698e-07 9.45461C-0.202945 9.45461 -0.403901 9.49459 -0.591394 9.57225L4.00081 20.6588ZM6 15.4546L6 21L-6 21L-6 15.4546L6 15.4546Z" fill="url(#paint1_linear_284_546)" mask="url(#path-3-inside-2_284_546)"/>
<mask id="path-5-inside-3_284_546" fill="white">
<path d="M27 9.08261e-07C27 1.31322 26.7413 2.61358 26.2388 3.82684C25.7362 5.04009 24.9997 6.14248 24.0711 7.07107C23.1425 7.99965 22.0401 8.73625 20.8268 9.2388C19.6136 9.74134 18.3132 10 17 10C15.6868 10 14.3864 9.74134 13.1732 9.2388C11.9599 8.73625 10.8575 7.99965 9.92893 7.07107C9.00035 6.14248 8.26375 5.04009 7.7612 3.82683C7.25866 2.61358 7 1.31322 7 0L12 9.08261e-07C12 0.65661 12.1293 1.30679 12.3806 1.91342C12.6319 2.52005 13.0002 3.07124 13.4645 3.53554C13.9288 3.99983 14.48 4.36812 15.0866 4.6194C15.6932 4.87067 16.3434 5 17 5C17.6566 5 18.3068 4.87067 18.9134 4.6194C19.52 4.36812 20.0712 3.99983 20.5355 3.53554C20.9998 3.07124 21.3681 2.52005 21.6194 1.91342C21.8707 1.30679 22 0.65661 22 9.08261e-07L27 9.08261e-07Z"/>
</mask>
<path d="M27 9.08261e-07L33 9.08261e-07V-6L27 -6V9.08261e-07ZM17 10V4V10ZM7 0L7 -6L1 -6L1 -5.24537e-07L7 0ZM12 9.08261e-07L18 1.4328e-06L18 -6L12 -6L12 9.08261e-07ZM17 5V-1V5ZM22 9.08261e-07V-6L16 -6V9.08261e-07L22 9.08261e-07ZM21 9.08261e-07C21 0.525294 20.8965 1.04544 20.6955 1.53073L31.7821 6.12294C32.5862 4.18172 33 2.10115 33 9.08261e-07L21 9.08261e-07ZM20.6955 1.53073C20.4945 2.01603 20.1999 2.45699 19.8284 2.82843L28.3137 11.3137C29.7994 9.82798 30.978 8.06415 31.7821 6.12294L20.6955 1.53073ZM19.8284 2.82843C19.457 3.19987 19.016 3.4945 18.5307 3.69552L23.1229 14.7821C25.0641 13.978 26.828 12.7994 28.3137 11.3137L19.8284 2.82843ZM18.5307 3.69552C18.0454 3.89654 17.5253 4 17 4V16C19.1011 16 21.1817 15.5862 23.1229 14.7821L18.5307 3.69552ZM17 4C16.4747 4 15.9546 3.89654 15.4693 3.69552L10.8771 14.7821C12.8183 15.5862 14.8989 16 17 16V4ZM15.4693 3.69552C14.984 3.4945 14.543 3.19987 14.1716 2.82843L5.68629 11.3137C7.17203 12.7994 8.93585 13.978 10.8771 14.7821L15.4693 3.69552ZM14.1716 2.82843C13.8001 2.45699 13.5055 2.01604 13.3045 1.53073L2.21793 6.12293C3.022 8.06414 4.20055 9.82797 5.68629 11.3137L14.1716 2.82843ZM13.3045 1.53073C13.1035 1.04543 13 0.525287 13 5.24537e-07L1 -5.24537e-07C1 2.10115 1.41385 4.18173 2.21793 6.12293L13.3045 1.53073ZM7 6L12 6L12 -6L7 -6L7 6ZM6 3.83725e-07C6 1.44454 6.28452 2.87493 6.83732 4.20952L17.9239 -0.382683C17.9741 -0.261353 18 -0.131316 18 1.4328e-06L6 3.83725e-07ZM6.83732 4.20952C7.39013 5.5441 8.20038 6.75673 9.22182 7.77818L17.7071 -0.707105C17.8 -0.614249 17.8736 -0.50401 17.9239 -0.382683L6.83732 4.20952ZM9.22182 7.77818C10.2433 8.79962 11.4559 9.60987 12.7905 10.1627L17.3827 -0.923878C17.504 -0.873624 17.6142 -0.799964 17.7071 -0.707105L9.22182 7.77818ZM12.7905 10.1627C14.1251 10.7155 15.5555 11 17 11V-1C17.1313 -1 17.2614 -0.974136 17.3827 -0.923878L12.7905 10.1627ZM17 11C18.4445 11 19.8749 10.7155 21.2095 10.1627L16.6173 -0.923879C16.7386 -0.974135 16.8687 -1 17 -1V11ZM21.2095 10.1627C22.5441 9.60988 23.7567 8.79962 24.7782 7.77818L16.2929 -0.707106C16.3858 -0.799968 16.496 -0.873626 16.6173 -0.923879L21.2095 10.1627ZM24.7782 7.77818C25.7996 6.75673 26.6099 5.54411 27.1627 4.20952L16.0761 -0.382682C16.1264 -0.504012 16.2 -0.61425 16.2929 -0.707106L24.7782 7.77818ZM27.1627 4.20952C27.7155 2.87493 28 1.44454 28 9.08261e-07L16 9.08261e-07C16 -0.131315 16.0259 -0.261351 16.0761 -0.382682L27.1627 4.20952ZM22 6H27V-6H22V6Z" fill="url(#paint2_linear_284_546)" mask="url(#path-5-inside-3_284_546)"/>
<mask id="path-7-inside-4_284_546" fill="white">
<path d="M7 22C7 20.6868 7.25866 19.3864 7.7612 18.1732C8.26375 16.9599 9.00035 15.8575 9.92893 14.9289C10.8575 14.0003 11.9599 13.2637 13.1732 12.7612C14.3864 12.2587 15.6868 12 17 12C18.3132 12 19.6136 12.2587 20.8268 12.7612C22.0401 13.2637 23.1425 14.0003 24.0711 14.9289C24.9997 15.8575 25.7362 16.9599 26.2388 18.1732C26.7413 19.3864 27 20.6868 27 22L22 22C22 21.3434 21.8707 20.6932 21.6194 20.0866C21.3681 19.48 20.9998 18.9288 20.5355 18.4645C20.0712 18.0002 19.52 17.6319 18.9134 17.3806C18.3068 17.1293 17.6566 17 17 17C16.3434 17 15.6932 17.1293 15.0866 17.3806C14.48 17.6319 13.9288 18.0002 13.4645 18.4645C13.0002 18.9288 12.6319 19.48 12.3806 20.0866C12.1293 20.6932 12 21.3434 12 22L7 22Z"/>
</mask>
<path d="M7 22L1 22L0.999999 28L7 28L7 22ZM17 12L17 18L17 12ZM27 22L27 28L33 28L33 22L27 22ZM22 22L16 22L16 28L22 28L22 22ZM17 17L17 23L17 17ZM12 22L12 28L18 28L18 22L12 22ZM13 22C13 21.4747 13.1035 20.9546 13.3045 20.4693L2.21793 15.8771C1.41385 17.8183 1 19.8989 1 22L13 22ZM13.3045 20.4693C13.5055 19.984 13.8001 19.543 14.1716 19.1716L5.68629 10.6863C4.20056 12.172 3.022 13.9358 2.21793 15.8771L13.3045 20.4693ZM14.1716 19.1716C14.543 18.8001 14.984 18.5055 15.4693 18.3045L10.8771 7.21792C8.93585 8.022 7.17203 9.20056 5.68629 10.6863L14.1716 19.1716ZM15.4693 18.3045C15.9546 18.1035 16.4747 18 17 18L17 6C14.8989 6 12.8183 6.41385 10.8771 7.21792L15.4693 18.3045ZM17 18C17.5253 18 18.0454 18.1035 18.5307 18.3045L23.1229 7.21793C21.1817 6.41385 19.1011 6 17 6L17 18ZM18.5307 18.3045C19.016 18.5055 19.457 18.8001 19.8284 19.1716L28.3137 10.6863C26.828 9.20056 25.0642 8.022 23.1229 7.21793L18.5307 18.3045ZM19.8284 19.1716C20.1999 19.543 20.4945 19.984 20.6955 20.4693L31.7821 15.8771C30.978 13.9359 29.7994 12.172 28.3137 10.6863L19.8284 19.1716ZM20.6955 20.4693C20.8965 20.9546 21 21.4747 21 22L33 22C33 19.8989 32.5861 17.8183 31.7821 15.8771L20.6955 20.4693ZM27 16L22 16L22 28L27 28L27 16ZM28 22C28 20.5555 27.7155 19.1251 27.1627 17.7905L16.0761 22.3827C16.0259 22.2614 16 22.1313 16 22L28 22ZM27.1627 17.7905C26.6099 16.4559 25.7996 15.2433 24.7782 14.2218L16.2929 22.7071C16.2 22.6142 16.1264 22.504 16.0761 22.3827L27.1627 17.7905ZM24.7782 14.2218C23.7567 13.2004 22.5441 12.3901 21.2095 11.8373L16.6173 22.9239C16.496 22.8736 16.3858 22.8 16.2929 22.7071L24.7782 14.2218ZM21.2095 11.8373C19.8749 11.2845 18.4445 11 17 11L17 23C16.8687 23 16.7386 22.9741 16.6173 22.9239L21.2095 11.8373ZM17 11C15.5555 11 14.1251 11.2845 12.7905 11.8373L17.3827 22.9239C17.2614 22.9741 17.1313 23 17 23L17 11ZM12.7905 11.8373C11.4559 12.3901 10.2433 13.2004 9.22183 14.2218L17.7071 22.7071C17.6142 22.8 17.504 22.8736 17.3827 22.9239L12.7905 11.8373ZM9.22183 14.2218C8.20038 15.2433 7.39013 16.4559 6.83732 17.7905L17.9239 22.3827C17.8736 22.504 17.8 22.6142 17.7071 22.7071L9.22183 14.2218ZM6.83732 17.7905C6.28452 19.1251 6 20.5555 6 22L18 22C18 22.1313 17.9741 22.2613 17.9239 22.3827L6.83732 17.7905ZM12 16L7 16L7 28L12 28L12 16Z" fill="url(#paint3_linear_284_546)" mask="url(#path-7-inside-4_284_546)"/>
<defs>
<linearGradient id="paint0_linear_284_546" x1="34" y1="11" x2="24" y2="11" gradientUnits="userSpaceOnUse">
<stop stop-color="#00D9D6"/>
<stop offset="1" stop-color="#00A9FF"/>
</linearGradient>
<linearGradient id="paint1_linear_284_546" x1="-4.37114e-07" y1="11" x2="10" y2="11" gradientUnits="userSpaceOnUse">
<stop stop-color="#00D9D6"/>
<stop offset="1" stop-color="#00A9FF"/>
</linearGradient>
<linearGradient id="paint2_linear_284_546" x1="17" y1="0" x2="17" y2="10" gradientUnits="userSpaceOnUse">
<stop stop-color="#00D9D6"/>
<stop offset="1" stop-color="#00A9FF"/>
</linearGradient>
<linearGradient id="paint3_linear_284_546" x1="17" y1="22" x2="17" y2="12" gradientUnits="userSpaceOnUse">
<stop stop-color="#00D9D6"/>
<stop offset="1" stop-color="#00A9FF"/>
</linearGradient>
</defs>
</svg>
