<svg width="16" height="12" viewBox="0 0 16 12" fill="none" xmlns="http://www.w3.org/2000/svg">
<path d="M4.75 6H1" stroke="white" stroke-linecap="round" stroke-linejoin="round"/>
<path d="M14.3403 9.57174C14.0672 10.0057 13.6721 10.3664 13.1952 10.6173C12.7182 10.8682 12.1765 11.0002 11.625 11C11.2146 11 10.8082 10.9268 10.4291 10.7846C10.05 10.6423 9.70546 10.4339 9.41528 10.1711C9.1251 9.90826 8.89492 9.59627 8.73787 9.2529C8.58083 8.90953 8.5 8.54151 8.5 8.16985V6.33015C8.5 5.57955 8.82924 4.85969 9.41528 4.32893C10.0013 3.79818 10.7962 3.5 11.625 3.5C12.0353 3.49999 12.4417 3.57319 12.8209 3.71541C13.2 3.85764 13.5445 4.0661 13.8347 4.32891C14.1249 4.59171 14.3551 4.90371 14.5121 5.24708C14.6692 5.59046 14.75 5.95849 14.75 6.33015V7.25H8.5" stroke="white" stroke-linecap="round" stroke-linejoin="round"/>
<path d="M4.50916 6C5.07132 6.0034 5.60946 6.26829 6.00594 6.73676C6.40243 7.20523 6.625 7.83918 6.625 8.5C6.625 9.16082 6.40243 9.79477 6.00594 10.2632C5.60946 10.7317 5.07132 10.9966 4.50916 11H1V1H4.50916C5.07132 1.0034 5.60946 1.26829 6.00594 1.73676C6.40243 2.20523 6.625 2.83918 6.625 3.5C6.625 4.16082 6.40243 4.79477 6.00594 5.26324C5.60946 5.73171 5.07132 5.9966 4.50916 6Z" stroke="white" stroke-linecap="round" stroke-linejoin="round"/>
<path d="M8.5 1H14.75" stroke="white" stroke-linecap="round" stroke-linejoin="round"/>
</svg>
