<svg width="71" height="75" viewBox="0 0 71 75" fill="none" xmlns="http://www.w3.org/2000/svg">
<path d="M33.5388 0C19.9552 0 7.40031 7.41211 0.776203 19.3394L0 20.7388H3.00685L3.27814 20.2635C9.484 9.39245 21.0781 2.64045 33.5388 2.64045C52.7404 2.64045 68.3624 18.2794 68.3624 37.5019C68.3624 56.7243 52.7404 72.3633 33.5388 72.3633C21.0781 72.3633 9.484 65.6113 3.27814 54.7365L3.00685 54.2612H0L0.776203 55.6606C7.40031 67.5879 19.9552 75 33.5388 75C54.1948 75 71 58.1766 71 37.4981C71 16.8196 54.1948 0 33.5388 0Z" fill="white"/>
</svg>
