<?xml version="1.0" encoding="UTF-8"?>
<svg id="_Слой_1" data-name="Слой 1" xmlns="http://www.w3.org/2000/svg" viewBox="0 0 500 500" fill="white">
  <path d="M70.8,249.87l42.94,42.94-28.62,28.62-42.94-42.94-28.62-28.62,28.62-28.62h0l42.94-42.94,28.62,28.62-42.94,42.94Zm124.07-42.92l-28.62-28.62-28.62,28.62-42.94,42.94,28.62,28.62,42.94-42.94,42.94,42.94,28.62-28.62-42.94-42.94h0Zm290.91,42.94l-42.94-42.94-28.62-28.62-28.62,28.62-42.94,42.94,28.62,28.62,42.94-42.94,42.94,42.94,28.62-28.62Zm-123.99-42.94l-28.62-28.62-42.94,42.94-42.94-42.94-28.62,28.62,42.94,42.94,28.62,28.62,28.62-28.62h0l42.94-42.94Z"/>
</svg>