<svg width="14" height="13" viewBox="0 0 14 13" fill="none" xmlns="http://www.w3.org/2000/svg">
<path d="M13.7199 0.201173C13.6089 0.102485 13.4738 0.0369494 13.3292 0.0116735C13.1847 -0.0136025 13.0361 0.00234579 12.8997 0.0577888L0.510962 5.06746C0.349011 5.13294 0.212016 5.25064 0.120477 5.40295C0.0289372 5.55526 -0.0122242 5.73399 0.00315197 5.91239C0.0185281 6.09078 0.0896148 6.25926 0.205775 6.3926C0.321935 6.52595 0.476922 6.61699 0.647543 6.6521L4.01022 7.34439V11.6167C4.00854 11.7811 4.05511 11.9421 4.14383 12.0788C4.23256 12.2155 4.3593 12.3214 4.50748 12.3827C4.60674 12.4254 4.71324 12.4476 4.82086 12.4479C4.92602 12.4476 5.03007 12.4257 5.12697 12.3837C5.22387 12.3416 5.31169 12.2802 5.38534 12.2029L7.30492 10.2271L10.1372 12.7926C10.2832 12.926 10.4715 12.9998 10.6667 13C10.7516 12.9999 10.8359 12.9861 10.9166 12.9592C11.0498 12.9157 11.1695 12.8371 11.2639 12.7311C11.3582 12.6252 11.424 12.4956 11.4545 12.3553L13.9794 1.01472C14.0124 0.867641 14.0056 0.714086 13.9599 0.570684C13.9141 0.427281 13.8311 0.299497 13.7199 0.201173ZM0.538068 5.86352C0.531389 5.80382 0.544467 5.74354 0.575188 5.69244C0.605908 5.64133 0.652476 5.60238 0.707363 5.58188L12.0636 0.989734L4.21645 6.82317L0.752855 6.11014C0.69532 6.0999 0.642822 6.06998 0.603847 6.02523C0.564872 5.98048 0.541697 5.92351 0.538068 5.86352ZM5.00559 11.8121C4.96804 11.8508 4.9202 11.8771 4.86811 11.8877C4.81603 11.8984 4.76205 11.8929 4.71299 11.872C4.66392 11.8511 4.62199 11.8157 4.59249 11.7702C4.56298 11.7248 4.54724 11.6714 4.54724 11.6167V7.72919L6.90098 9.8612L5.00559 11.8121ZM13.456 0.891238L10.9311 12.2319C10.9207 12.2785 10.8987 12.3216 10.8673 12.3569C10.8358 12.3922 10.796 12.4185 10.7518 12.4332C10.7075 12.4478 10.6603 12.4505 10.6147 12.4407C10.5692 12.431 10.5269 12.4092 10.492 12.3776L4.70869 7.13914L13.4126 0.668809C13.4355 0.700202 13.4513 0.736472 13.4588 0.77496C13.4663 0.813448 13.4653 0.853179 13.456 0.891238Z" fill="white"/>
</svg>
