<svg width="23" height="16" viewBox="0 0 23 16" fill="none" xmlns="http://www.w3.org/2000/svg">
<path d="M21.9082 2.93389C21.7864 2.49065 21.5478 2.08651 21.2163 1.76194C20.8849 1.43737 20.4721 1.20377 20.0195 1.08451C18.7822 0.616778 6.79827 0.387621 3.32189 1.09791C2.86918 1.21718 2.45641 1.45082 2.12492 1.77542C1.79342 2.10003 1.55484 2.50421 1.43306 2.9475C0.87465 5.34637 0.832259 10.5327 1.44674 12.9851C1.56855 13.4284 1.80715 13.8325 2.13864 14.1571C2.47013 14.4817 2.88288 14.7153 3.33557 14.8346C5.78543 15.3867 17.4327 15.4644 20.0331 14.8346C20.4858 14.7153 20.8986 14.4817 21.23 14.1571C21.5615 13.8325 21.8001 13.4284 21.9219 12.9851C22.5173 10.3717 22.5597 5.50707 21.9082 2.93389Z" stroke="white" stroke-linecap="round" stroke-linejoin="round"/>
<path d="M15.2013 7.95944L9.61719 4.82347V11.0953L15.2013 7.95944Z" stroke="white" stroke-linecap="round" stroke-linejoin="round"/>
</svg>
