<svg width="795" height="121" viewBox="0 0 795 121" fill="none" xmlns="http://www.w3.org/2000/svg">
<g clip-path="url(#clip0_773_129)">
<mask id="mask0_773_129" style="mask-type:luminance" maskUnits="userSpaceOnUse" x="-64" y="-22" width="948" height="175">
<path d="M884 -22H-64V153H884V-22Z" fill="white"/>
</mask>
<g mask="url(#mask0_773_129)">
<path d="M10 -101L-273 182" stroke="url(#paint0_linear_773_129)"/>
<path d="M21 -101L-262 182" stroke="url(#paint1_linear_773_129)"/>
<path d="M32 -101L-251 182" stroke="url(#paint2_linear_773_129)"/>
<path d="M43 -101L-240 182" stroke="url(#paint3_linear_773_129)"/>
<path d="M54 -101L-229 182" stroke="url(#paint4_linear_773_129)"/>
<path d="M65 -101L-218 182" stroke="url(#paint5_linear_773_129)"/>
<path d="M76 -101L-207 182" stroke="url(#paint6_linear_773_129)"/>
<path d="M87 -101L-196 182" stroke="url(#paint7_linear_773_129)"/>
<path d="M98 -101L-185 182" stroke="url(#paint8_linear_773_129)"/>
<path d="M109 -101L-174 182" stroke="url(#paint9_linear_773_129)"/>
<path d="M120 -101L-163 182" stroke="url(#paint10_linear_773_129)"/>
<path d="M131 -101L-152 182" stroke="url(#paint11_linear_773_129)"/>
<path d="M142 -101L-141 182" stroke="url(#paint12_linear_773_129)"/>
<path d="M153 -101L-130 182" stroke="url(#paint13_linear_773_129)"/>
<path d="M164 -101L-119 182" stroke="url(#paint14_linear_773_129)"/>
<path d="M175 -101L-108 182" stroke="url(#paint15_linear_773_129)"/>
<path d="M186 -101L-97 182" stroke="url(#paint16_linear_773_129)"/>
<path d="M197 -101L-86 182" stroke="url(#paint17_linear_773_129)"/>
<path d="M208 -101L-75 182" stroke="url(#paint18_linear_773_129)"/>
<path d="M219 -101L-64 182" stroke="url(#paint19_linear_773_129)"/>
<path d="M230 -101L-53 182" stroke="url(#paint20_linear_773_129)"/>
<path d="M241 -101L-42 182" stroke="url(#paint21_linear_773_129)"/>
<path d="M252 -101L-31 182" stroke="url(#paint22_linear_773_129)"/>
<path d="M263 -101L-20 182" stroke="url(#paint23_linear_773_129)"/>
<path d="M274 -101L-9 182" stroke="url(#paint24_linear_773_129)"/>
<path d="M285 -101L2 182" stroke="url(#paint25_linear_773_129)"/>
<path d="M296 -101L13 182" stroke="url(#paint26_linear_773_129)"/>
<path d="M307 -101L24 182" stroke="url(#paint27_linear_773_129)"/>
<path d="M318 -101L35 182" stroke="url(#paint28_linear_773_129)"/>
<path d="M329 -101L46 182" stroke="url(#paint29_linear_773_129)"/>
<path d="M340 -101L57 182" stroke="url(#paint30_linear_773_129)"/>
<path d="M351 -101L68 182" stroke="url(#paint31_linear_773_129)"/>
<path d="M362 -101L79 182" stroke="url(#paint32_linear_773_129)"/>
<path d="M373 -101L90 182" stroke="url(#paint33_linear_773_129)"/>
<path d="M384 -101L101 182" stroke="url(#paint34_linear_773_129)"/>
<path d="M395 -101L112 182" stroke="url(#paint35_linear_773_129)"/>
<path d="M406 -101L123 182" stroke="url(#paint36_linear_773_129)"/>
<path d="M417 -101L134 182" stroke="url(#paint37_linear_773_129)"/>
<path d="M428 -101L145 182" stroke="url(#paint38_linear_773_129)"/>
<path d="M439 -101L156 182" stroke="url(#paint39_linear_773_129)"/>
<path d="M450 -101L167 182" stroke="url(#paint40_linear_773_129)"/>
<path d="M461 -101L178 182" stroke="url(#paint41_linear_773_129)"/>
<path d="M472 -101L189 182" stroke="url(#paint42_linear_773_129)"/>
<path d="M483 -101L200 182" stroke="url(#paint43_linear_773_129)"/>
<path d="M494 -101L211 182" stroke="url(#paint44_linear_773_129)"/>
<path d="M505 -101L222 182" stroke="url(#paint45_linear_773_129)"/>
<path d="M516 -101L233 182" stroke="url(#paint46_linear_773_129)"/>
<path d="M527 -101L244 182" stroke="url(#paint47_linear_773_129)"/>
<path d="M538 -101L255 182" stroke="url(#paint48_linear_773_129)"/>
<path d="M549 -101L266 182" stroke="url(#paint49_linear_773_129)"/>
<path d="M560 -101L277 182" stroke="url(#paint50_linear_773_129)"/>
<path d="M571 -101L288 182" stroke="url(#paint51_linear_773_129)"/>
<path d="M582 -101L299 182" stroke="url(#paint52_linear_773_129)"/>
<path d="M593 -101L310 182" stroke="url(#paint53_linear_773_129)"/>
<path d="M604 -101L321 182" stroke="url(#paint54_linear_773_129)"/>
<path d="M615 -101L332 182" stroke="url(#paint55_linear_773_129)"/>
<path d="M626 -101L343 182" stroke="url(#paint56_linear_773_129)"/>
<path d="M637 -101L354 182" stroke="url(#paint57_linear_773_129)"/>
<path d="M648 -101L365 182" stroke="url(#paint58_linear_773_129)"/>
<path d="M659 -101L376 182" stroke="url(#paint59_linear_773_129)"/>
<path d="M670 -101L387 182" stroke="url(#paint60_linear_773_129)"/>
<path d="M681 -101L398 182" stroke="url(#paint61_linear_773_129)"/>
<path d="M692 -101L409 182" stroke="url(#paint62_linear_773_129)"/>
<path d="M703 -101L420 182" stroke="url(#paint63_linear_773_129)"/>
<path d="M714 -101L431 182" stroke="url(#paint64_linear_773_129)"/>
<path d="M725 -101L442 182" stroke="url(#paint65_linear_773_129)"/>
<path d="M736 -101L453 182" stroke="url(#paint66_linear_773_129)"/>
<path d="M747 -101L464 182" stroke="url(#paint67_linear_773_129)"/>
<path d="M758 -101L475 182" stroke="url(#paint68_linear_773_129)"/>
<path d="M769 -101L486 182" stroke="url(#paint69_linear_773_129)"/>
<path d="M780 -101L497 182" stroke="url(#paint70_linear_773_129)"/>
<path d="M791 -101L508 182" stroke="url(#paint71_linear_773_129)"/>
<path d="M802 -101L519 182" stroke="url(#paint72_linear_773_129)"/>
<path d="M813 -101L530 182" stroke="url(#paint73_linear_773_129)"/>
<path d="M824 -101L541 182" stroke="url(#paint74_linear_773_129)"/>
<path d="M835 -101L552 182" stroke="url(#paint75_linear_773_129)"/>
<path d="M846 -101L563 182" stroke="url(#paint76_linear_773_129)"/>
<path d="M857 -101L574 182" stroke="url(#paint77_linear_773_129)"/>
<path d="M868 -101L585 182" stroke="url(#paint78_linear_773_129)"/>
<path d="M879 -101L596 182" stroke="url(#paint79_linear_773_129)"/>
<path d="M890 -101L607 182" stroke="url(#paint80_linear_773_129)"/>
<path d="M901 -101L618 182" stroke="url(#paint81_linear_773_129)"/>
<path d="M912 -101L629 182" stroke="url(#paint82_linear_773_129)"/>
<path d="M923 -101L640 182" stroke="url(#paint83_linear_773_129)"/>
<path d="M934 -101L651 182" stroke="url(#paint84_linear_773_129)"/>
<path d="M945 -101L662 182" stroke="url(#paint85_linear_773_129)"/>
<path d="M956 -101L673 182" stroke="url(#paint86_linear_773_129)"/>
<path d="M967 -101L684 182" stroke="url(#paint87_linear_773_129)"/>
<path d="M978 -101L695 182" stroke="url(#paint88_linear_773_129)"/>
<path d="M989 -101L706 182" stroke="url(#paint89_linear_773_129)"/>
<path d="M1000 -101L717 182" stroke="url(#paint90_linear_773_129)"/>
<path d="M1011 -101L728 182" stroke="url(#paint91_linear_773_129)"/>
<path d="M1022 -101L739 182" stroke="url(#paint92_linear_773_129)"/>
<path d="M1033 -101L750 182" stroke="url(#paint93_linear_773_129)"/>
<path d="M1044 -101L761 182" stroke="url(#paint94_linear_773_129)"/>
<path d="M1055 -101L772 182" stroke="url(#paint95_linear_773_129)"/>
<path d="M1066 -101L783 182" stroke="url(#paint96_linear_773_129)"/>
<path d="M1077 -101L794 182" stroke="url(#paint97_linear_773_129)"/>
</g>
</g>
<defs>
<linearGradient id="paint0_linear_773_129" x1="-131.5" y1="-101" x2="-131.5" y2="182" gradientUnits="userSpaceOnUse">
<stop stop-color="#FFFAF8" stop-opacity="0.57"/>
<stop offset="1" stop-color="#575656" stop-opacity="0"/>
</linearGradient>
<linearGradient id="paint1_linear_773_129" x1="-120.5" y1="-101" x2="-120.5" y2="182" gradientUnits="userSpaceOnUse">
<stop stop-color="#FFFAF8" stop-opacity="0.57"/>
<stop offset="1" stop-color="#575656" stop-opacity="0"/>
</linearGradient>
<linearGradient id="paint2_linear_773_129" x1="-109.5" y1="-101" x2="-109.5" y2="182" gradientUnits="userSpaceOnUse">
<stop stop-color="#FFFAF8" stop-opacity="0.57"/>
<stop offset="1" stop-color="#575656" stop-opacity="0"/>
</linearGradient>
<linearGradient id="paint3_linear_773_129" x1="-98.5" y1="-101" x2="-98.5" y2="182" gradientUnits="userSpaceOnUse">
<stop stop-color="#FFFAF8" stop-opacity="0.57"/>
<stop offset="1" stop-color="#575656" stop-opacity="0"/>
</linearGradient>
<linearGradient id="paint4_linear_773_129" x1="-87.5" y1="-101" x2="-87.5" y2="182" gradientUnits="userSpaceOnUse">
<stop stop-color="#FFFAF8" stop-opacity="0.57"/>
<stop offset="1" stop-color="#575656" stop-opacity="0"/>
</linearGradient>
<linearGradient id="paint5_linear_773_129" x1="-76.5" y1="-101" x2="-76.5" y2="182" gradientUnits="userSpaceOnUse">
<stop stop-color="#FFFAF8" stop-opacity="0.57"/>
<stop offset="1" stop-color="#575656" stop-opacity="0"/>
</linearGradient>
<linearGradient id="paint6_linear_773_129" x1="-65.5" y1="-101" x2="-65.5" y2="182" gradientUnits="userSpaceOnUse">
<stop stop-color="#FFFAF8" stop-opacity="0.57"/>
<stop offset="1" stop-color="#575656" stop-opacity="0"/>
</linearGradient>
<linearGradient id="paint7_linear_773_129" x1="-54.5" y1="-101" x2="-54.5" y2="182" gradientUnits="userSpaceOnUse">
<stop stop-color="#FFFAF8" stop-opacity="0.57"/>
<stop offset="1" stop-color="#575656" stop-opacity="0"/>
</linearGradient>
<linearGradient id="paint8_linear_773_129" x1="-43.5" y1="-101" x2="-43.5" y2="182" gradientUnits="userSpaceOnUse">
<stop stop-color="#FFFAF8" stop-opacity="0.57"/>
<stop offset="1" stop-color="#575656" stop-opacity="0"/>
</linearGradient>
<linearGradient id="paint9_linear_773_129" x1="-32.5" y1="-101" x2="-32.5" y2="182" gradientUnits="userSpaceOnUse">
<stop stop-color="#FFFAF8" stop-opacity="0.57"/>
<stop offset="1" stop-color="#575656" stop-opacity="0"/>
</linearGradient>
<linearGradient id="paint10_linear_773_129" x1="-21.5" y1="-101" x2="-21.5" y2="182" gradientUnits="userSpaceOnUse">
<stop stop-color="#FFFAF8" stop-opacity="0.57"/>
<stop offset="1" stop-color="#575656" stop-opacity="0"/>
</linearGradient>
<linearGradient id="paint11_linear_773_129" x1="-10.5" y1="-101" x2="-10.5" y2="182" gradientUnits="userSpaceOnUse">
<stop stop-color="#FFFAF8" stop-opacity="0.57"/>
<stop offset="1" stop-color="#575656" stop-opacity="0"/>
</linearGradient>
<linearGradient id="paint12_linear_773_129" x1="0.5" y1="-101" x2="0.5" y2="182" gradientUnits="userSpaceOnUse">
<stop stop-color="#FFFAF8" stop-opacity="0.57"/>
<stop offset="1" stop-color="#575656" stop-opacity="0"/>
</linearGradient>
<linearGradient id="paint13_linear_773_129" x1="11.5" y1="-101" x2="11.5" y2="182" gradientUnits="userSpaceOnUse">
<stop stop-color="#FFFAF8" stop-opacity="0.57"/>
<stop offset="1" stop-color="#575656" stop-opacity="0"/>
</linearGradient>
<linearGradient id="paint14_linear_773_129" x1="22.5" y1="-101" x2="22.5" y2="182" gradientUnits="userSpaceOnUse">
<stop stop-color="#FFFAF8" stop-opacity="0.57"/>
<stop offset="1" stop-color="#575656" stop-opacity="0"/>
</linearGradient>
<linearGradient id="paint15_linear_773_129" x1="33.5" y1="-101" x2="33.5" y2="182" gradientUnits="userSpaceOnUse">
<stop stop-color="#FFFAF8" stop-opacity="0.57"/>
<stop offset="1" stop-color="#575656" stop-opacity="0"/>
</linearGradient>
<linearGradient id="paint16_linear_773_129" x1="44.5" y1="-101" x2="44.5" y2="182" gradientUnits="userSpaceOnUse">
<stop stop-color="#FFFAF8" stop-opacity="0.57"/>
<stop offset="1" stop-color="#575656" stop-opacity="0"/>
</linearGradient>
<linearGradient id="paint17_linear_773_129" x1="55.5" y1="-101" x2="55.5" y2="182" gradientUnits="userSpaceOnUse">
<stop stop-color="#FFFAF8" stop-opacity="0.57"/>
<stop offset="1" stop-color="#575656" stop-opacity="0"/>
</linearGradient>
<linearGradient id="paint18_linear_773_129" x1="66.5" y1="-101" x2="66.5" y2="182" gradientUnits="userSpaceOnUse">
<stop stop-color="#FFFAF8" stop-opacity="0.57"/>
<stop offset="1" stop-color="#575656" stop-opacity="0"/>
</linearGradient>
<linearGradient id="paint19_linear_773_129" x1="77.5" y1="-101" x2="77.5" y2="182" gradientUnits="userSpaceOnUse">
<stop stop-color="#FFFAF8" stop-opacity="0.57"/>
<stop offset="1" stop-color="#575656" stop-opacity="0"/>
</linearGradient>
<linearGradient id="paint20_linear_773_129" x1="88.5" y1="-101" x2="88.5" y2="182" gradientUnits="userSpaceOnUse">
<stop stop-color="#FFFAF8" stop-opacity="0.57"/>
<stop offset="1" stop-color="#575656" stop-opacity="0"/>
</linearGradient>
<linearGradient id="paint21_linear_773_129" x1="99.5" y1="-101" x2="99.5" y2="182" gradientUnits="userSpaceOnUse">
<stop stop-color="#FFFAF8" stop-opacity="0.57"/>
<stop offset="1" stop-color="#575656" stop-opacity="0"/>
</linearGradient>
<linearGradient id="paint22_linear_773_129" x1="110.5" y1="-101" x2="110.5" y2="182" gradientUnits="userSpaceOnUse">
<stop stop-color="#FFFAF8" stop-opacity="0.57"/>
<stop offset="1" stop-color="#575656" stop-opacity="0"/>
</linearGradient>
<linearGradient id="paint23_linear_773_129" x1="121.5" y1="-101" x2="121.5" y2="182" gradientUnits="userSpaceOnUse">
<stop stop-color="#FFFAF8" stop-opacity="0.57"/>
<stop offset="1" stop-color="#575656" stop-opacity="0"/>
</linearGradient>
<linearGradient id="paint24_linear_773_129" x1="132.5" y1="-101" x2="132.5" y2="182" gradientUnits="userSpaceOnUse">
<stop stop-color="#FFFAF8" stop-opacity="0.57"/>
<stop offset="1" stop-color="#575656" stop-opacity="0"/>
</linearGradient>
<linearGradient id="paint25_linear_773_129" x1="143.5" y1="-101" x2="143.5" y2="182" gradientUnits="userSpaceOnUse">
<stop stop-color="#FFFAF8" stop-opacity="0.57"/>
<stop offset="1" stop-color="#575656" stop-opacity="0"/>
</linearGradient>
<linearGradient id="paint26_linear_773_129" x1="154.5" y1="-101" x2="154.5" y2="182" gradientUnits="userSpaceOnUse">
<stop stop-color="#FFFAF8" stop-opacity="0.57"/>
<stop offset="1" stop-color="#575656" stop-opacity="0"/>
</linearGradient>
<linearGradient id="paint27_linear_773_129" x1="165.5" y1="-101" x2="165.5" y2="182" gradientUnits="userSpaceOnUse">
<stop stop-color="#FFFAF8" stop-opacity="0.57"/>
<stop offset="1" stop-color="#575656" stop-opacity="0"/>
</linearGradient>
<linearGradient id="paint28_linear_773_129" x1="176.5" y1="-101" x2="176.5" y2="182" gradientUnits="userSpaceOnUse">
<stop stop-color="#FFFAF8" stop-opacity="0.57"/>
<stop offset="1" stop-color="#575656" stop-opacity="0"/>
</linearGradient>
<linearGradient id="paint29_linear_773_129" x1="187.5" y1="-101" x2="187.5" y2="182" gradientUnits="userSpaceOnUse">
<stop stop-color="#FFFAF8" stop-opacity="0.57"/>
<stop offset="1" stop-color="#575656" stop-opacity="0"/>
</linearGradient>
<linearGradient id="paint30_linear_773_129" x1="198.5" y1="-101" x2="198.5" y2="182" gradientUnits="userSpaceOnUse">
<stop stop-color="#FFFAF8" stop-opacity="0.57"/>
<stop offset="1" stop-color="#575656" stop-opacity="0"/>
</linearGradient>
<linearGradient id="paint31_linear_773_129" x1="209.5" y1="-101" x2="209.5" y2="182" gradientUnits="userSpaceOnUse">
<stop stop-color="#FFFAF8" stop-opacity="0.57"/>
<stop offset="1" stop-color="#575656" stop-opacity="0"/>
</linearGradient>
<linearGradient id="paint32_linear_773_129" x1="220.5" y1="-101" x2="220.5" y2="182" gradientUnits="userSpaceOnUse">
<stop stop-color="#FFFAF8" stop-opacity="0.57"/>
<stop offset="1" stop-color="#575656" stop-opacity="0"/>
</linearGradient>
<linearGradient id="paint33_linear_773_129" x1="231.5" y1="-101" x2="231.5" y2="182" gradientUnits="userSpaceOnUse">
<stop stop-color="#FFFAF8" stop-opacity="0.57"/>
<stop offset="1" stop-color="#575656" stop-opacity="0"/>
</linearGradient>
<linearGradient id="paint34_linear_773_129" x1="242.5" y1="-101" x2="242.5" y2="182" gradientUnits="userSpaceOnUse">
<stop stop-color="#FFFAF8" stop-opacity="0.57"/>
<stop offset="1" stop-color="#575656" stop-opacity="0"/>
</linearGradient>
<linearGradient id="paint35_linear_773_129" x1="253.5" y1="-101" x2="253.5" y2="182" gradientUnits="userSpaceOnUse">
<stop stop-color="#FFFAF8" stop-opacity="0.57"/>
<stop offset="1" stop-color="#575656" stop-opacity="0"/>
</linearGradient>
<linearGradient id="paint36_linear_773_129" x1="264.5" y1="-101" x2="264.5" y2="182" gradientUnits="userSpaceOnUse">
<stop stop-color="#FFFAF8" stop-opacity="0.57"/>
<stop offset="1" stop-color="#575656" stop-opacity="0"/>
</linearGradient>
<linearGradient id="paint37_linear_773_129" x1="275.5" y1="-101" x2="275.5" y2="182" gradientUnits="userSpaceOnUse">
<stop stop-color="#FFFAF8" stop-opacity="0.57"/>
<stop offset="1" stop-color="#575656" stop-opacity="0"/>
</linearGradient>
<linearGradient id="paint38_linear_773_129" x1="286.5" y1="-101" x2="286.5" y2="182" gradientUnits="userSpaceOnUse">
<stop stop-color="#FFFAF8" stop-opacity="0.57"/>
<stop offset="1" stop-color="#575656" stop-opacity="0"/>
</linearGradient>
<linearGradient id="paint39_linear_773_129" x1="297.5" y1="-101" x2="297.5" y2="182" gradientUnits="userSpaceOnUse">
<stop stop-color="#FFFAF8" stop-opacity="0.57"/>
<stop offset="1" stop-color="#575656" stop-opacity="0"/>
</linearGradient>
<linearGradient id="paint40_linear_773_129" x1="308.5" y1="-101" x2="308.5" y2="182" gradientUnits="userSpaceOnUse">
<stop stop-color="#FFFAF8" stop-opacity="0.57"/>
<stop offset="1" stop-color="#575656" stop-opacity="0"/>
</linearGradient>
<linearGradient id="paint41_linear_773_129" x1="319.5" y1="-101" x2="319.5" y2="182" gradientUnits="userSpaceOnUse">
<stop stop-color="#FFFAF8" stop-opacity="0.57"/>
<stop offset="1" stop-color="#575656" stop-opacity="0"/>
</linearGradient>
<linearGradient id="paint42_linear_773_129" x1="330.5" y1="-101" x2="330.5" y2="182" gradientUnits="userSpaceOnUse">
<stop stop-color="#FFFAF8" stop-opacity="0.57"/>
<stop offset="1" stop-color="#575656" stop-opacity="0"/>
</linearGradient>
<linearGradient id="paint43_linear_773_129" x1="341.5" y1="-101" x2="341.5" y2="182" gradientUnits="userSpaceOnUse">
<stop stop-color="#FFFAF8" stop-opacity="0.57"/>
<stop offset="1" stop-color="#575656" stop-opacity="0"/>
</linearGradient>
<linearGradient id="paint44_linear_773_129" x1="352.5" y1="-101" x2="352.5" y2="182" gradientUnits="userSpaceOnUse">
<stop stop-color="#FFFAF8" stop-opacity="0.57"/>
<stop offset="1" stop-color="#575656" stop-opacity="0"/>
</linearGradient>
<linearGradient id="paint45_linear_773_129" x1="363.5" y1="-101" x2="363.5" y2="182" gradientUnits="userSpaceOnUse">
<stop stop-color="#FFFAF8" stop-opacity="0.57"/>
<stop offset="1" stop-color="#575656" stop-opacity="0"/>
</linearGradient>
<linearGradient id="paint46_linear_773_129" x1="374.5" y1="-101" x2="374.5" y2="182" gradientUnits="userSpaceOnUse">
<stop stop-color="#FFFAF8" stop-opacity="0.57"/>
<stop offset="1" stop-color="#575656" stop-opacity="0"/>
</linearGradient>
<linearGradient id="paint47_linear_773_129" x1="385.5" y1="-101" x2="385.5" y2="182" gradientUnits="userSpaceOnUse">
<stop stop-color="#FFFAF8" stop-opacity="0.57"/>
<stop offset="1" stop-color="#575656" stop-opacity="0"/>
</linearGradient>
<linearGradient id="paint48_linear_773_129" x1="396.5" y1="-101" x2="396.5" y2="182" gradientUnits="userSpaceOnUse">
<stop stop-color="#FFFAF8" stop-opacity="0.57"/>
<stop offset="1" stop-color="#575656" stop-opacity="0"/>
</linearGradient>
<linearGradient id="paint49_linear_773_129" x1="407.5" y1="-101" x2="407.5" y2="182" gradientUnits="userSpaceOnUse">
<stop stop-color="#FFFAF8" stop-opacity="0.57"/>
<stop offset="1" stop-color="#575656" stop-opacity="0"/>
</linearGradient>
<linearGradient id="paint50_linear_773_129" x1="418.5" y1="-101" x2="418.5" y2="182" gradientUnits="userSpaceOnUse">
<stop stop-color="#FFFAF8" stop-opacity="0.57"/>
<stop offset="1" stop-color="#575656" stop-opacity="0"/>
</linearGradient>
<linearGradient id="paint51_linear_773_129" x1="429.5" y1="-101" x2="429.5" y2="182" gradientUnits="userSpaceOnUse">
<stop stop-color="#FFFAF8" stop-opacity="0.57"/>
<stop offset="1" stop-color="#575656" stop-opacity="0"/>
</linearGradient>
<linearGradient id="paint52_linear_773_129" x1="440.5" y1="-101" x2="440.5" y2="182" gradientUnits="userSpaceOnUse">
<stop stop-color="#FFFAF8" stop-opacity="0.57"/>
<stop offset="1" stop-color="#575656" stop-opacity="0"/>
</linearGradient>
<linearGradient id="paint53_linear_773_129" x1="451.5" y1="-101" x2="451.5" y2="182" gradientUnits="userSpaceOnUse">
<stop stop-color="#FFFAF8" stop-opacity="0.57"/>
<stop offset="1" stop-color="#575656" stop-opacity="0"/>
</linearGradient>
<linearGradient id="paint54_linear_773_129" x1="462.5" y1="-101" x2="462.5" y2="182" gradientUnits="userSpaceOnUse">
<stop stop-color="#FFFAF8" stop-opacity="0.57"/>
<stop offset="1" stop-color="#575656" stop-opacity="0"/>
</linearGradient>
<linearGradient id="paint55_linear_773_129" x1="473.5" y1="-101" x2="473.5" y2="182" gradientUnits="userSpaceOnUse">
<stop stop-color="#FFFAF8" stop-opacity="0.57"/>
<stop offset="1" stop-color="#575656" stop-opacity="0"/>
</linearGradient>
<linearGradient id="paint56_linear_773_129" x1="484.5" y1="-101" x2="484.5" y2="182" gradientUnits="userSpaceOnUse">
<stop stop-color="#FFFAF8" stop-opacity="0.57"/>
<stop offset="1" stop-color="#575656" stop-opacity="0"/>
</linearGradient>
<linearGradient id="paint57_linear_773_129" x1="495.5" y1="-101" x2="495.5" y2="182" gradientUnits="userSpaceOnUse">
<stop stop-color="#FFFAF8" stop-opacity="0.57"/>
<stop offset="1" stop-color="#575656" stop-opacity="0"/>
</linearGradient>
<linearGradient id="paint58_linear_773_129" x1="506.5" y1="-101" x2="506.5" y2="182" gradientUnits="userSpaceOnUse">
<stop stop-color="#FFFAF8" stop-opacity="0.57"/>
<stop offset="1" stop-color="#575656" stop-opacity="0"/>
</linearGradient>
<linearGradient id="paint59_linear_773_129" x1="517.5" y1="-101" x2="517.5" y2="182" gradientUnits="userSpaceOnUse">
<stop stop-color="#FFFAF8" stop-opacity="0.57"/>
<stop offset="1" stop-color="#575656" stop-opacity="0"/>
</linearGradient>
<linearGradient id="paint60_linear_773_129" x1="528.5" y1="-101" x2="528.5" y2="182" gradientUnits="userSpaceOnUse">
<stop stop-color="#FFFAF8" stop-opacity="0.57"/>
<stop offset="1" stop-color="#575656" stop-opacity="0"/>
</linearGradient>
<linearGradient id="paint61_linear_773_129" x1="539.5" y1="-101" x2="539.5" y2="182" gradientUnits="userSpaceOnUse">
<stop stop-color="#FFFAF8" stop-opacity="0.57"/>
<stop offset="1" stop-color="#575656" stop-opacity="0"/>
</linearGradient>
<linearGradient id="paint62_linear_773_129" x1="550.5" y1="-101" x2="550.5" y2="182" gradientUnits="userSpaceOnUse">
<stop stop-color="#FFFAF8" stop-opacity="0.57"/>
<stop offset="1" stop-color="#575656" stop-opacity="0"/>
</linearGradient>
<linearGradient id="paint63_linear_773_129" x1="561.5" y1="-101" x2="561.5" y2="182" gradientUnits="userSpaceOnUse">
<stop stop-color="#FFFAF8" stop-opacity="0.57"/>
<stop offset="1" stop-color="#575656" stop-opacity="0"/>
</linearGradient>
<linearGradient id="paint64_linear_773_129" x1="572.5" y1="-101" x2="572.5" y2="182" gradientUnits="userSpaceOnUse">
<stop stop-color="#FFFAF8" stop-opacity="0.57"/>
<stop offset="1" stop-color="#575656" stop-opacity="0"/>
</linearGradient>
<linearGradient id="paint65_linear_773_129" x1="583.5" y1="-101" x2="583.5" y2="182" gradientUnits="userSpaceOnUse">
<stop stop-color="#FFFAF8" stop-opacity="0.57"/>
<stop offset="1" stop-color="#575656" stop-opacity="0"/>
</linearGradient>
<linearGradient id="paint66_linear_773_129" x1="594.5" y1="-101" x2="594.5" y2="182" gradientUnits="userSpaceOnUse">
<stop stop-color="#FFFAF8" stop-opacity="0.57"/>
<stop offset="1" stop-color="#575656" stop-opacity="0"/>
</linearGradient>
<linearGradient id="paint67_linear_773_129" x1="605.5" y1="-101" x2="605.5" y2="182" gradientUnits="userSpaceOnUse">
<stop stop-color="#FFFAF8" stop-opacity="0.57"/>
<stop offset="1" stop-color="#575656" stop-opacity="0"/>
</linearGradient>
<linearGradient id="paint68_linear_773_129" x1="616.5" y1="-101" x2="616.5" y2="182" gradientUnits="userSpaceOnUse">
<stop stop-color="#FFFAF8" stop-opacity="0.57"/>
<stop offset="1" stop-color="#575656" stop-opacity="0"/>
</linearGradient>
<linearGradient id="paint69_linear_773_129" x1="627.5" y1="-101" x2="627.5" y2="182" gradientUnits="userSpaceOnUse">
<stop stop-color="#FFFAF8" stop-opacity="0.57"/>
<stop offset="1" stop-color="#575656" stop-opacity="0"/>
</linearGradient>
<linearGradient id="paint70_linear_773_129" x1="638.5" y1="-101" x2="638.5" y2="182" gradientUnits="userSpaceOnUse">
<stop stop-color="#FFFAF8" stop-opacity="0.57"/>
<stop offset="1" stop-color="#575656" stop-opacity="0"/>
</linearGradient>
<linearGradient id="paint71_linear_773_129" x1="649.5" y1="-101" x2="649.5" y2="182" gradientUnits="userSpaceOnUse">
<stop stop-color="#FFFAF8" stop-opacity="0.57"/>
<stop offset="1" stop-color="#575656" stop-opacity="0"/>
</linearGradient>
<linearGradient id="paint72_linear_773_129" x1="660.5" y1="-101" x2="660.5" y2="182" gradientUnits="userSpaceOnUse">
<stop stop-color="#FFFAF8" stop-opacity="0.57"/>
<stop offset="1" stop-color="#575656" stop-opacity="0"/>
</linearGradient>
<linearGradient id="paint73_linear_773_129" x1="671.5" y1="-101" x2="671.5" y2="182" gradientUnits="userSpaceOnUse">
<stop stop-color="#FFFAF8" stop-opacity="0.57"/>
<stop offset="1" stop-color="#575656" stop-opacity="0"/>
</linearGradient>
<linearGradient id="paint74_linear_773_129" x1="682.5" y1="-101" x2="682.5" y2="182" gradientUnits="userSpaceOnUse">
<stop stop-color="#FFFAF8" stop-opacity="0.57"/>
<stop offset="1" stop-color="#575656" stop-opacity="0"/>
</linearGradient>
<linearGradient id="paint75_linear_773_129" x1="693.5" y1="-101" x2="693.5" y2="182" gradientUnits="userSpaceOnUse">
<stop stop-color="#FFFAF8" stop-opacity="0.57"/>
<stop offset="1" stop-color="#575656" stop-opacity="0"/>
</linearGradient>
<linearGradient id="paint76_linear_773_129" x1="704.5" y1="-101" x2="704.5" y2="182" gradientUnits="userSpaceOnUse">
<stop stop-color="#FFFAF8" stop-opacity="0.57"/>
<stop offset="1" stop-color="#575656" stop-opacity="0"/>
</linearGradient>
<linearGradient id="paint77_linear_773_129" x1="715.5" y1="-101" x2="715.5" y2="182" gradientUnits="userSpaceOnUse">
<stop stop-color="#FFFAF8" stop-opacity="0.57"/>
<stop offset="1" stop-color="#575656" stop-opacity="0"/>
</linearGradient>
<linearGradient id="paint78_linear_773_129" x1="726.5" y1="-101" x2="726.5" y2="182" gradientUnits="userSpaceOnUse">
<stop stop-color="#FFFAF8" stop-opacity="0.57"/>
<stop offset="1" stop-color="#575656" stop-opacity="0"/>
</linearGradient>
<linearGradient id="paint79_linear_773_129" x1="737.5" y1="-101" x2="737.5" y2="182" gradientUnits="userSpaceOnUse">
<stop stop-color="#FFFAF8" stop-opacity="0.57"/>
<stop offset="1" stop-color="#575656" stop-opacity="0"/>
</linearGradient>
<linearGradient id="paint80_linear_773_129" x1="748.5" y1="-101" x2="748.5" y2="182" gradientUnits="userSpaceOnUse">
<stop stop-color="#FFFAF8" stop-opacity="0.57"/>
<stop offset="1" stop-color="#575656" stop-opacity="0"/>
</linearGradient>
<linearGradient id="paint81_linear_773_129" x1="759.5" y1="-101" x2="759.5" y2="182" gradientUnits="userSpaceOnUse">
<stop stop-color="#FFFAF8" stop-opacity="0.57"/>
<stop offset="1" stop-color="#575656" stop-opacity="0"/>
</linearGradient>
<linearGradient id="paint82_linear_773_129" x1="770.5" y1="-101" x2="770.5" y2="182" gradientUnits="userSpaceOnUse">
<stop stop-color="#FFFAF8" stop-opacity="0.57"/>
<stop offset="1" stop-color="#575656" stop-opacity="0"/>
</linearGradient>
<linearGradient id="paint83_linear_773_129" x1="781.5" y1="-101" x2="781.5" y2="182" gradientUnits="userSpaceOnUse">
<stop stop-color="#FFFAF8" stop-opacity="0.57"/>
<stop offset="1" stop-color="#575656" stop-opacity="0"/>
</linearGradient>
<linearGradient id="paint84_linear_773_129" x1="792.5" y1="-101" x2="792.5" y2="182" gradientUnits="userSpaceOnUse">
<stop stop-color="#FFFAF8" stop-opacity="0.57"/>
<stop offset="1" stop-color="#575656" stop-opacity="0"/>
</linearGradient>
<linearGradient id="paint85_linear_773_129" x1="803.5" y1="-101" x2="803.5" y2="182" gradientUnits="userSpaceOnUse">
<stop stop-color="#FFFAF8" stop-opacity="0.57"/>
<stop offset="1" stop-color="#575656" stop-opacity="0"/>
</linearGradient>
<linearGradient id="paint86_linear_773_129" x1="814.5" y1="-101" x2="814.5" y2="182" gradientUnits="userSpaceOnUse">
<stop stop-color="#FFFAF8" stop-opacity="0.57"/>
<stop offset="1" stop-color="#575656" stop-opacity="0"/>
</linearGradient>
<linearGradient id="paint87_linear_773_129" x1="825.5" y1="-101" x2="825.5" y2="182" gradientUnits="userSpaceOnUse">
<stop stop-color="#FFFAF8" stop-opacity="0.57"/>
<stop offset="1" stop-color="#575656" stop-opacity="0"/>
</linearGradient>
<linearGradient id="paint88_linear_773_129" x1="836.5" y1="-101" x2="836.5" y2="182" gradientUnits="userSpaceOnUse">
<stop stop-color="#FFFAF8" stop-opacity="0.57"/>
<stop offset="1" stop-color="#575656" stop-opacity="0"/>
</linearGradient>
<linearGradient id="paint89_linear_773_129" x1="847.5" y1="-101" x2="847.5" y2="182" gradientUnits="userSpaceOnUse">
<stop stop-color="#FFFAF8" stop-opacity="0.57"/>
<stop offset="1" stop-color="#575656" stop-opacity="0"/>
</linearGradient>
<linearGradient id="paint90_linear_773_129" x1="858.5" y1="-101" x2="858.5" y2="182" gradientUnits="userSpaceOnUse">
<stop stop-color="#FFFAF8" stop-opacity="0.57"/>
<stop offset="1" stop-color="#575656" stop-opacity="0"/>
</linearGradient>
<linearGradient id="paint91_linear_773_129" x1="869.5" y1="-101" x2="869.5" y2="182" gradientUnits="userSpaceOnUse">
<stop stop-color="#FFFAF8" stop-opacity="0.57"/>
<stop offset="1" stop-color="#575656" stop-opacity="0"/>
</linearGradient>
<linearGradient id="paint92_linear_773_129" x1="880.5" y1="-101" x2="880.5" y2="182" gradientUnits="userSpaceOnUse">
<stop stop-color="#FFFAF8" stop-opacity="0.57"/>
<stop offset="1" stop-color="#575656" stop-opacity="0"/>
</linearGradient>
<linearGradient id="paint93_linear_773_129" x1="891.5" y1="-101" x2="891.5" y2="182" gradientUnits="userSpaceOnUse">
<stop stop-color="#FFFAF8" stop-opacity="0.57"/>
<stop offset="1" stop-color="#575656" stop-opacity="0"/>
</linearGradient>
<linearGradient id="paint94_linear_773_129" x1="902.5" y1="-101" x2="902.5" y2="182" gradientUnits="userSpaceOnUse">
<stop stop-color="#FFFAF8" stop-opacity="0.57"/>
<stop offset="1" stop-color="#575656" stop-opacity="0"/>
</linearGradient>
<linearGradient id="paint95_linear_773_129" x1="913.5" y1="-101" x2="913.5" y2="182" gradientUnits="userSpaceOnUse">
<stop stop-color="#FFFAF8" stop-opacity="0.57"/>
<stop offset="1" stop-color="#575656" stop-opacity="0"/>
</linearGradient>
<linearGradient id="paint96_linear_773_129" x1="924.5" y1="-101" x2="924.5" y2="182" gradientUnits="userSpaceOnUse">
<stop stop-color="#FFFAF8" stop-opacity="0.57"/>
<stop offset="1" stop-color="#575656" stop-opacity="0"/>
</linearGradient>
<linearGradient id="paint97_linear_773_129" x1="935.5" y1="-101" x2="935.5" y2="182" gradientUnits="userSpaceOnUse">
<stop stop-color="#FFFAF8" stop-opacity="0.57"/>
<stop offset="1" stop-color="#575656" stop-opacity="0"/>
</linearGradient>
<clipPath id="clip0_773_129">
<rect width="795" height="121" fill="white"/>
</clipPath>
</defs>
</svg>
