<svg width="370" height="56" viewBox="0 0 370 56" fill="none" xmlns="http://www.w3.org/2000/svg">
<g clip-path="url(#clip0_515_204)">
<path d="M370 6.58436H40.112V56H33.5155V6.58436H0V0H370V6.58436Z" fill="white"/>
<path d="M134.972 12.2797V37.3662H105.521L132.706 55.9999H120.446L94.993 37.3662H67.9407V55.9999H61.3441L61.2776 12.2139L134.972 12.2797ZM67.9407 30.7818L128.375 30.8476L128.309 18.7982H67.9407V30.7818Z" fill="white"/>
<path d="M212.192 12.2798H138.565V56H212.192V12.2798ZM145.161 18.8641H205.662L205.529 49.4816L145.228 49.3497L145.161 18.8641Z" fill="white"/>
<path d="M290.796 12.2798H217.169V56H290.796V12.2798ZM223.765 18.8641H284.266L284.133 49.4816L223.832 49.3497L223.765 18.8641Z" fill="white"/>
<path d="M303.036 18.8642V30.0576H347.346V36.6421H303.036V56.0001H296.372V12.3457H370V18.8642H303.036Z" fill="white"/>
</g>
<defs>
<clipPath id="clip0_515_204">
<rect width="370" height="56" fill="white"/>
</clipPath>
</defs>
</svg>
