<?xml version="1.0" encoding="UTF-8"?> <svg xmlns="http://www.w3.org/2000/svg" width="131" height="165" viewBox="0 0 131 165" fill="none"> <path d="M100.073 97.183L130.554 137.679L87.7454 146.634L62.1063 112.373L40.3015 116.931V156.566L0.343381 164.936L0 15.9273L64.9449 2.2641C77.7301 -0.411131 88.8328 -0.502984 98.2529 2.00002C107.673 4.50302 114.941 9.37124 120.058 16.6162C125.174 23.8611 127.726 33.0923 127.726 44.3099C127.726 55.1027 125.334 65.0228 120.561 74.0359C115.788 83.0605 108.955 90.7762 100.073 97.183ZM81.0952 37.8687C76.9174 34.9064 70.7251 34.2864 62.5183 36.0087L40.313 40.6588V84.335L62.5183 79.6849C70.7251 77.9627 76.9174 74.7937 81.0952 70.1551C85.2616 65.5165 87.3562 59.7183 87.3562 52.7604C87.3562 45.8025 85.2731 40.831 81.0952 37.8687Z" fill="#E51386"></path> </svg> 