<svg width="164" height="44" viewBox="0 0 164 44" fill="none" xmlns="http://www.w3.org/2000/svg">
<path d="M118.032 23.1364H132.699V29.7468L118.032 29.9534V23.1364Z" fill="white"/>
<path d="M140.549 13.0142L163.479 0V6.61041L140.549 19.8312V13.0142Z" fill="white"/>
<path d="M146.746 19.8312L163.479 10.3288V16.9392L146.746 26.6482V19.8312Z" fill="white"/>
<path d="M163.479 19.8312L146.746 29.3337V36.1507V43.1742H163.479V33.4652L159.554 31.3994L158.521 32.0192V36.7704H151.911V33.154L163.479 26.4416V19.8312Z" fill="white"/>
<path d="M0 11.5095H9.49726L17.5538 31.1548H17.9256L25.982 11.5095H35.4793V43.2395H28.0116V23.7491H27.7483L20.1256 43.038H15.3537L7.73106 23.6406H7.46769V43.2395H0V11.5095ZM40.2628 11.5095H49.7601L57.8166 31.1548H58.1884L66.2448 11.5095H75.7421V43.2395H68.2744V23.7491H68.0111L60.3884 43.038H55.6165L47.9939 23.6406H47.7305V43.2395H40.2628V11.5095ZM99.9076 43.2395L89.93 30.0703H88.1947V43.2395H80.5256V11.5095H88.1947V23.8265H89.4187L99.2416 11.5095H108.832L96.6075 26.4914L109.467 43.2395H99.9076Z" fill="white"/>
</svg>
